<svg width="50" height="50" viewBox="0 0 50 50" fill="none" xmlns="http://www.w3.org/2000/svg">
<g clip-path="url(#clip0_853_19)">
<path d="M53.2117 46.788C52.0181 46.788 51.0416 45.8114 51.0416 44.6178C51.0416 43.4243 52.0181 42.4477 53.2117 42.4477H55.9244C57.986 42.4477 59.7221 40.7116 59.7221 38.65C59.7221 36.5883 57.986 34.8522 55.9244 34.8522H44.5311C43.012 34.8522 41.8185 33.6586 41.8185 32.1395C41.8185 30.6204 43.012 29.4269 44.5311 29.4269H53.2117C55.0563 29.4269 56.4669 28.0163 56.4669 26.1717C56.4669 24.327 55.0563 22.9165 53.2117 22.9165H35.8506V16.406H55.3818C57.8775 16.406 59.9391 14.2359 59.7221 11.6317C59.5051 9.35308 57.4435 7.72548 55.1648 7.72548H53.2117C52.0181 7.72548 51.0416 6.74892 51.0416 5.55534C51.0416 4.36176 52.0181 3.3852 53.2117 3.3852H53.6457C55.0563 3.3852 56.3584 2.40864 56.4669 0.998048C56.6839 -0.629556 55.3818 -2.04015 53.7542 -2.04015H38.5633C37.6952 -2.04015 36.9357 -2.7997 36.9357 -3.66775C36.9357 -4.53581 37.6952 -5.29536 38.5633 -5.29536H42.795C44.2056 -5.29536 45.5077 -6.27192 45.6162 -7.68251C45.7247 -9.31011 44.5311 -10.7207 42.9035 -10.7207H7.20475C5.79416 -10.7207 4.49208 -9.74414 4.38357 -8.33355C4.27506 -6.70595 5.46864 -5.29536 7.09625 -5.29536H10.894C12.0876 -5.29536 13.0641 -4.31879 13.0641 -3.12522C13.0641 -1.93164 12.0876 -0.955077 10.894 -0.955077H-2.9949C-5.27355 -0.955077 -7.33518 0.672528 -7.55219 2.95117C-7.76921 5.55534 -5.70757 7.72548 -3.21191 7.72548H-0.499241C1.56239 7.72548 3.2985 9.46159 3.2985 11.5232C3.2985 13.5849 1.56239 15.321 -0.499241 15.321H-4.07997C-6.35862 15.321 -8.42025 16.9486 -8.63726 19.2272C-8.85428 21.8314 -6.79264 24.0015 -4.29698 24.0015H14.1492V35.9373H-3.21191C-5.05653 35.9373 -6.46712 37.3479 -6.46712 39.1925C-6.46712 41.0371 -5.05653 42.4477 -3.21191 42.4477C-2.01834 42.4477 -1.04178 43.4243 -1.04178 44.6178C-1.04178 45.8114 -2.01834 46.788 -3.21191 46.788H-5.16504C-7.44369 46.788 -9.50532 48.4156 -9.72233 50.6942C-9.93934 53.2984 -7.87771 55.4685 -5.38205 55.4685H52.9947C55.2733 55.4685 57.335 53.8409 57.552 51.5623C57.769 48.9581 55.7074 46.788 53.2117 46.788Z" fill="url(#paint0_radial_853_19)"/>
<path d="M39.106 50.0436H10.8942C4.92627 50.0436 0.043457 45.1608 0.043457 39.1929V10.9811C0.043457 5.01318 4.92627 0.130371 10.8942 0.130371H39.106C45.0738 0.130371 49.9567 5.01318 49.9567 10.9811V39.1929C49.9567 45.1608 45.0738 50.0436 39.106 50.0436Z" fill="url(#paint1_radial_853_19)"/>
<path d="M24.9999 9.89583C29.9912 9.89583 30.5337 9.89583 32.4869 10.0043C34.3315 10.1128 35.308 10.4384 35.9591 10.6554C36.8271 10.9809 37.4782 11.4149 38.1292 12.066C38.7803 12.717 39.2143 13.3681 39.5398 14.2361C39.7568 14.8872 40.0824 15.8637 40.1909 17.7083C40.1909 19.553 40.1909 20.0955 40.1909 25.0868C40.1909 30.0781 40.1909 30.6207 40.0824 32.5738C39.9739 34.4184 39.6483 35.395 39.4313 36.046C39.1058 36.9141 38.6718 37.5651 38.0207 38.2161C37.3697 38.8672 36.7186 39.3012 35.8506 39.6267C35.1995 39.8438 34.223 40.1693 32.3784 40.2778C30.5337 40.2778 29.9912 40.2778 24.9999 40.2778C20.0086 40.2778 19.466 40.2778 17.5129 40.1693C15.6683 40.0608 14.6917 39.7352 14.0407 39.5182C13.1726 39.1927 12.5216 38.7587 11.8706 38.1076C11.2195 37.4566 10.7855 36.8056 10.46 35.9375C10.2429 35.2865 9.91743 34.3099 9.80892 32.4653C9.80892 30.6207 9.80892 30.0781 9.80892 25.0868C9.80892 20.0955 9.80892 19.553 9.91743 17.5998C10.0259 15.7552 10.3515 14.7786 10.5685 14.1276C10.894 13.2595 11.328 12.6085 11.9791 11.9575C12.6301 11.3064 13.2811 10.8724 14.1492 10.5469C14.8002 10.3299 15.7768 10.0043 17.6214 9.89583C19.466 9.89583 20.0086 9.89583 24.9999 9.89583ZM24.9999 6.64062C20.0086 6.64062 19.3575 6.64063 17.4044 6.74913C15.4513 6.85764 14.1492 7.18316 12.9556 7.61719C11.762 8.05121 10.677 8.70226 9.70041 9.78733C8.72385 10.8724 8.07281 11.849 7.53027 13.0425C7.09625 14.2361 6.77073 15.5382 6.66222 17.4913C6.55371 19.4444 6.55371 20.0955 6.55371 25.0868C6.55371 30.0781 6.55371 30.7292 6.66222 32.6823C6.77073 34.6354 7.09625 35.9375 7.53027 37.1311C7.9643 38.3247 8.61534 39.4097 9.70041 40.3863C10.677 41.3628 11.762 42.0139 12.9556 42.5564C14.1492 42.9904 15.4513 43.316 17.4044 43.4245C19.3575 43.533 20.0086 43.533 24.9999 43.533C29.9912 43.533 30.6423 43.533 32.5954 43.4245C34.5485 43.316 35.8506 42.9904 37.0442 42.5564C38.2377 42.1224 39.3228 41.4714 40.2994 40.3863C41.2759 39.4097 41.927 38.3247 42.4695 37.1311C42.9035 35.9375 43.2291 34.6354 43.3376 32.6823C43.4461 30.7292 43.4461 30.0781 43.4461 25.0868C43.4461 20.0955 43.4461 19.4444 43.3376 17.4913C43.2291 15.5382 42.9035 14.2361 42.4695 13.0425C42.0355 11.849 41.3844 10.7639 40.2994 9.78733C39.2143 8.81076 38.2377 8.15972 37.0442 7.61719C35.8506 7.18316 34.5485 6.85764 32.5954 6.74913C30.6423 6.64063 29.9912 6.64062 24.9999 6.64062Z" fill="white"/>
<path d="M25 15.3213C19.5747 15.3213 15.2344 19.6616 15.2344 25.0869C15.2344 30.5123 19.5747 34.8525 25 34.8525C30.4253 34.8525 34.7656 30.5123 34.7656 25.0869C34.7656 19.6616 30.4253 15.3213 25 15.3213ZM25 31.5973C21.4193 31.5973 18.4896 28.6676 18.4896 25.0869C18.4896 21.5062 21.4193 18.5765 25 18.5765C28.5807 18.5765 31.5104 21.5062 31.5104 25.0869C31.5104 28.6676 28.5807 31.5973 25 31.5973Z" fill="white"/>
<path d="M34.7656 17.4912C35.9641 17.4912 36.9357 16.5196 36.9357 15.321C36.9357 14.1225 35.9641 13.1509 34.7656 13.1509C33.5671 13.1509 32.5955 14.1225 32.5955 15.321C32.5955 16.5196 33.5671 17.4912 34.7656 17.4912Z" fill="white"/>
</g>
<defs>
<radialGradient id="paint0_radial_853_19" cx="0" cy="0" r="1" gradientUnits="userSpaceOnUse" gradientTransform="translate(24.9999 22.3739) scale(33.9182 33.9182)">
<stop stop-color="#F2E0BB"/>
<stop offset="0.011" stop-color="#F2E0BC"/>
<stop offset="0.362" stop-color="#F9EDD2"/>
<stop offset="0.699" stop-color="#FEF4DF"/>
<stop offset="1" stop-color="#FFF7E4"/>
</radialGradient>
<radialGradient id="paint1_radial_853_19" cx="0" cy="0" r="1" gradientUnits="userSpaceOnUse" gradientTransform="translate(10.3613 60.1299) rotate(-49.945) scale(75.5702 49.9206)">
<stop offset="0.073" stop-color="#EACC7B"/>
<stop offset="0.184" stop-color="#ECAA59"/>
<stop offset="0.307" stop-color="#EF802E"/>
<stop offset="0.358" stop-color="#EF6D3A"/>
<stop offset="0.46" stop-color="#F04B50"/>
<stop offset="0.516" stop-color="#F03E58"/>
<stop offset="0.689" stop-color="#DB359E"/>
<stop offset="0.724" stop-color="#CE37A4"/>
<stop offset="0.789" stop-color="#AC3CB4"/>
<stop offset="0.877" stop-color="#7544CF"/>
<stop offset="0.98" stop-color="#2B4FF2"/>
</radialGradient>
<clipPath id="clip0_853_19">
<rect width="50" height="50" fill="white"/>
</clipPath>
</defs>
</svg>
