<svg width="50" height="50" viewBox="0 0 50 50" fill="none" xmlns="http://www.w3.org/2000/svg">
<g clip-path="url(#clip0_853_26)">
<path d="M24.9998 0.19873C18.422 0.19873 12.1137 2.81175 7.46246 7.46295C2.81126 12.1141 0.198242 18.4225 0.198242 25.0003C0.198242 31.5781 2.81126 37.8865 7.46246 42.5377C12.1137 47.1889 18.422 49.8019 24.9998 49.8019C31.5776 49.8019 37.886 47.1889 42.5372 42.5377C47.1884 37.8865 49.8014 31.5781 49.8014 25.0003C49.8014 18.4225 47.1884 12.1141 42.5372 7.46295C37.886 2.81175 31.5776 0.19873 24.9998 0.19873Z" fill="#29B6F6"/>
<path d="M37.3388 13.8392L32.6935 37.557C32.6935 37.557 32.4938 38.6408 31.1496 38.6408C30.4353 38.6408 30.067 38.301 30.067 38.301L20.005 29.9516L15.0819 27.4702L8.76367 25.7898C8.76367 25.7898 7.63892 25.4649 7.63892 24.5349C7.63892 23.7598 8.79591 23.3903 8.79591 23.3903L35.2294 12.8893C35.2294 12.8893 36.0367 12.5979 36.6258 12.5991C36.9879 12.5991 37.4008 12.7541 37.4008 13.2192C37.4008 13.5292 37.3388 13.8392 37.3388 13.8392Z" fill="white"/>
<path d="M23.76 33.0668L19.5115 37.2508C19.5115 37.2508 19.3267 37.3934 19.0799 37.3996C18.9944 37.4021 18.9026 37.3885 18.8083 37.3463L20.0038 29.9492L23.76 33.0668Z" fill="#B0BEC5"/>
<path d="M32.3127 17.8025C32.1032 17.5297 31.7162 17.4801 31.4434 17.6872L15.0793 27.4801C15.0793 27.4801 17.691 34.7866 18.089 36.0515C18.4883 37.3176 18.8083 37.3474 18.8083 37.3474L20.0037 29.9503L32.1962 18.6705C32.469 18.4635 32.5198 18.0753 32.3127 17.8025Z" fill="#CFD8DC"/>
</g>
<defs>
<clipPath id="clip0_853_26">
<rect width="50" height="50" fill="white"/>
</clipPath>
</defs>
</svg>
